<svg xmlns="http://www.w3.org/2000/svg" width="51.164" height="51.143" viewBox="0 0 51.164 51.143">
  <g id="emergency-call" transform="translate(0 -0.06)">
    <path id="Path_12" data-name="Path 12" d="M195.194,37.792h-2.747V35.045a1.746,1.746,0,0,0-3.492,0v2.747h-2.747a1.746,1.746,0,0,0,0,3.492h2.747v2.747a1.746,1.746,0,0,0,3.492,0V41.284h2.747a1.746,1.746,0,1,0,0-3.492Z" transform="translate(-152.685 -27.513)" fill="#fff"/>
    <path id="Path_13" data-name="Path 13" d="M15.038,68.2l4.281-4.258a1.746,1.746,0,0,0,0-2.469L9.041,51.2a1.747,1.747,0,0,0-2.469,0L2.46,55.31C-.228,58-.732,62.408,1.041,67.728a39.415,39.415,0,0,0,9.642,14.719c6.824,6.824,14.6,10.662,20.511,10.662a9.067,9.067,0,0,0,6.625-2.44l4.111-4.111a1.746,1.746,0,0,0,0-2.469L31.653,73.81a1.747,1.747,0,0,0-2.469,0l-4.258,4.281c-.9.452-3.793-.327-6.677-3.21S14.587,69.1,15.038,68.2Zm15.38,9.31,7.809,7.809-1.642,1.642-7.809-7.809ZM7.806,54.9l7.809,7.809-1.642,1.642L6.164,56.545Zm18.7,33.873a35.9,35.9,0,0,1-13.354-8.8,35.9,35.9,0,0,1-8.8-13.354c-.992-2.975-1.114-5.541-.392-7.342l7.78,7.78c-.99,2.7.524,6.776,4.037,10.29,2.805,2.805,5.97,4.338,8.506,4.338a5.167,5.167,0,0,0,1.786-.3l7.778,7.778C32.047,89.89,29.482,89.768,26.506,88.776Z" transform="translate(0 -41.906)" fill="#fff"/>
    <path id="Path_14" data-name="Path 14" d="M162.473.06H146.021a5.234,5.234,0,0,0-5.229,5.229V19.139a5.234,5.234,0,0,0,5.229,5.229H148.6v3.458a1.746,1.746,0,0,0,2.793,1.4l6.473-4.855h4.609a5.234,5.234,0,0,0,5.229-5.229V5.289A5.234,5.234,0,0,0,162.473.06Zm1.736,19.079a1.738,1.738,0,0,1-1.736,1.736h-5.191a1.747,1.747,0,0,0-1.048.349l-4.145,3.109V22.621a1.746,1.746,0,0,0-1.746-1.746h-4.323a1.738,1.738,0,0,1-1.736-1.736V5.289a1.738,1.738,0,0,1,1.736-1.736h16.453a1.738,1.738,0,0,1,1.736,1.736Z" transform="translate(-116.538 0)" fill="#fff"/>
  </g>
</svg>
