<svg xmlns="http://www.w3.org/2000/svg" width="23.855" height="22.818" viewBox="0 0 23.855 22.818">
  <g id="logout_2_" data-name="logout (2)" transform="translate(23.855 23.15) rotate(180)">
    <path id="Path_7" data-name="Path 7" d="M165.149,220.556H150.11a.778.778,0,1,1,0-1.556h15.039a.778.778,0,1,1,0,1.556Zm0,0" transform="translate(-142.072 -208.037)" fill="#fff"/>
    <path id="Path_8" data-name="Path 8" d="M154.266,143.506a.772.772,0,0,1-.55-.228l-4.149-4.149a.778.778,0,0,1,0-1.1l4.149-4.149a.778.778,0,0,1,1.1,1.1l-3.6,3.6,3.6,3.6a.777.777,0,0,1-.551,1.327Zm0,0" transform="translate(-142.079 -126.839)" fill="#fff"/>
    <path id="Path_9" data-name="Path 9" d="M11.409,23.15A11.409,11.409,0,1,1,22.027,7.567a.778.778,0,1,1-1.448.569,9.853,9.853,0,1,0,0,7.209.778.778,0,1,1,1.448.569A11.351,11.351,0,0,1,11.409,23.15Zm0,0" fill="#fff"/>
  </g>
</svg>
