<svg xmlns="http://www.w3.org/2000/svg" width="55.017" height="53.011" viewBox="0 0 55.017 53.011">
  <g id="map-location" transform="translate(0 -1.002)">
    <path id="Path_15" data-name="Path 15" d="M51.688,23.013h-10.9a1,1,0,0,0,0,2h9.1l2.9,27H2.268l3.4-27h9.118a1,1,0,0,0,0-2H3.907L0,54.013H55.017Z" fill="#fff"/>
    <path id="Path_16" data-name="Path 16" d="M17.48,45.164c-.586.275-1.183.53-1.774.759a1,1,0,0,0,.361,1.933.989.989,0,0,0,.36-.067c.635-.245,1.275-.519,1.9-.813a1,1,0,0,0-.85-1.812Z" fill="#fff"/>
    <path id="Path_17" data-name="Path 17" d="M36.6,37.573a1,1,0,0,0,1,.959h.042l2-.082a1,1,0,0,0,.954-1.044.99.99,0,0,0-1.045-.954l-1.993.082A1,1,0,0,0,36.6,37.573Z" fill="#fff"/>
    <path id="Path_18" data-name="Path 18" d="M31.427,37.171a1,1,0,0,0,.418,1.956c.586-.124,1.221-.229,1.886-.313A1,1,0,0,0,34.6,37.7a.987.987,0,0,0-1.115-.869C32.762,36.919,32.069,37.034,31.427,37.171Z" fill="#fff"/>
    <path id="Path_19" data-name="Path 19" d="M22.433,42.177c-.514.388-1.045.761-1.58,1.107a1,1,0,0,0,1.09,1.678c.573-.372,1.144-.772,1.695-1.188a1,1,0,0,0-1.2-1.6Z" fill="#fff"/>
    <path id="Path_20" data-name="Path 20" d="M9.994,48.842a4.812,4.812,0,0,0,.653.124,6.388,6.388,0,0,0,.769.047,7.415,7.415,0,0,0,.939-.062,1,1,0,0,0-.25-1.984,4.892,4.892,0,0,1-1.215.015,3.367,3.367,0,0,1-.4-.075,1,1,0,1,0-.5,1.935Z" fill="#fff"/>
    <path id="Path_21" data-name="Path 21" d="M46.688,32.763a1,1,0,0,0,.659,1.251,1.018,1.018,0,0,0,.3.045,1,1,0,0,0,.955-.7,4.238,4.238,0,0,0,.183-.964c.005-.083.008-.166.008-.25a3.984,3.984,0,0,0-.255-1.39,1,1,0,1,0-1.875.695,2,2,0,0,1,.13.694l0,.116A2.21,2.21,0,0,1,46.688,32.763Z" fill="#fff"/>
    <path id="Path_22" data-name="Path 22" d="M10.2,41a1,1,0,0,0,.476-.121,2.467,2.467,0,0,1,.913-.289,1.622,1.622,0,0,1,.406,0,1,1,0,0,0,.262-1.982,3.642,3.642,0,0,0-.891-.008,4.445,4.445,0,0,0-1.644.52A1,1,0,0,0,10.2,41Z" fill="#fff"/>
    <path id="Path_23" data-name="Path 23" d="M43.373,36.109a1,1,0,0,0,.2,1.98,1.014,1.014,0,0,0,.2-.021,5.454,5.454,0,0,0,2.072-.835c.059-.039.114-.08.169-.122a.965.965,0,0,0,.14-1.378,1.037,1.037,0,0,0-1.438-.149A3.541,3.541,0,0,1,43.373,36.109Z" fill="#fff"/>
    <path id="Path_24" data-name="Path 24" d="M8.86,43.4a1,1,0,1,0-1.93-.522,6.687,6.687,0,0,0-.225,1.406c-.005.115-.008.231-.008.347,0,.2.009.4.028.592a1,1,0,0,0,.994.9c.033,0,.067,0,.1-.005a1,1,0,0,0,.894-1.1,3.618,3.618,0,0,1-.019-.389c0-.083,0-.166.007-.248A4.658,4.658,0,0,1,8.86,43.4Z" fill="#fff"/>
    <path id="Path_25" data-name="Path 25" d="M44.7,27.81a5.918,5.918,0,0,0-2.386.18,1,1,0,0,0,.271,1.962.976.976,0,0,0,.272-.038,3.934,3.934,0,0,1,1.575-.121A1,1,0,0,0,44.7,27.81Z" fill="#fff"/>
    <path id="Path_26" data-name="Path 26" d="M26.655,38.968c-.147.087-.307.165-.447.256-.219.142-.432.29-.641.441a1,1,0,0,0,1.178,1.617c.18-.132.363-.259.552-.382a10.67,10.67,0,0,1,1.01-.577.993.993,0,0,0,.464-1.271c.008-.008.018-.014.026-.023A44.8,44.8,0,0,0,39.226,17.971a20.547,20.547,0,0,0,.342-6.918C38.708,4.478,34.623,1,27.755,1S16.8,4.478,15.942,11.053a20.571,20.571,0,0,0,.343,6.918A44.868,44.868,0,0,0,26.655,38.968Zm1.1-33.735a7.346,7.346,0,1,1-7.346,7.346A7.354,7.354,0,0,1,27.755,5.233Z" fill="#fff"/>
  </g>
</svg>
