<svg xmlns="http://www.w3.org/2000/svg" width="44.557" height="63.278" viewBox="0 0 44.557 63.278">
  <g id="placeholder" transform="translate(-63.506)">
    <g id="Layer_2_24_" transform="translate(63.506)">
      <g id="Group_28" data-name="Group 28" transform="translate(0)">
        <path id="Path_27" data-name="Path 27" d="M85.784,0A22.278,22.278,0,0,0,63.506,22.278c0,12.3,15.313,41,22.278,41s22.278-28.7,22.278-41A22.278,22.278,0,0,0,85.784,0Zm0,37.807a15.164,15.164,0,1,1,15.164-15.164A15.164,15.164,0,0,1,85.784,37.807Z" transform="translate(-63.506)" fill="#d43d21"/>
        <path id="Path_28" data-name="Path 28" d="M126.935,50.742A15.164,15.164,0,1,0,142.1,65.906,15.164,15.164,0,0,0,126.935,50.742Zm7.591,15.811a1.935,1.935,0,0,1-1.936,1.935h-3.073v3.073a1.935,1.935,0,0,1-1.935,1.936h-1.294a1.936,1.936,0,0,1-1.936-1.936V68.488H121.28a1.935,1.935,0,0,1-1.935-1.935V65.258a1.935,1.935,0,0,1,1.935-1.935h3.073V60.251a1.936,1.936,0,0,1,1.936-1.936h1.294a1.935,1.935,0,0,1,1.935,1.936v3.072h3.073a1.935,1.935,0,0,1,1.936,1.935Z" transform="translate(-104.657 -43.263)" fill="#f7f1e6"/>
        <path id="Path_29" data-name="Path 29" d="M176.4,107.129h-3.073v-3.072a1.935,1.935,0,0,0-1.935-1.936H170.1a1.936,1.936,0,0,0-1.936,1.936v3.072h-3.073a1.935,1.935,0,0,0-1.935,1.935v1.295a1.935,1.935,0,0,0,1.935,1.935h3.073v3.073A1.936,1.936,0,0,0,170.1,117.3h1.294a1.935,1.935,0,0,0,1.935-1.936v-3.073H176.4a1.935,1.935,0,0,0,1.936-1.935v-1.295A1.935,1.935,0,0,0,176.4,107.129Z" transform="translate(-148.466 -87.069)" fill="#e74424"/>
      </g>
    </g>
  </g>
</svg>
