<svg id="plus-sign-in-a-black-circle" xmlns="http://www.w3.org/2000/svg" width="24" height="24" viewBox="0 0 24 24">
  <path id="Path_33" data-name="Path 33" d="M22.391,5.976a11.95,11.95,0,0,0-4.367-4.367A11.738,11.738,0,0,0,12,0,11.738,11.738,0,0,0,5.977,1.609,11.947,11.947,0,0,0,1.61,5.976,11.738,11.738,0,0,0,0,12a11.74,11.74,0,0,0,1.609,6.023,11.95,11.95,0,0,0,4.367,4.367A11.739,11.739,0,0,0,12,24a11.739,11.739,0,0,0,6.024-1.609,11.947,11.947,0,0,0,4.367-4.367A11.74,11.74,0,0,0,24,12,11.741,11.741,0,0,0,22.391,5.976ZM19,13a.961.961,0,0,1-.3.7c-.2.2-13.208.2-13.406,0A.96.96,0,0,1,5,13V11a.961.961,0,0,1,.3-.7c.2-.2,13.209-.2,13.406,0a.961.961,0,0,1,.3.7Z" transform="translate(0 0)" fill="#df6183"/>
</svg>
