<svg id="qr-code_3_" data-name="qr-code (3)" xmlns="http://www.w3.org/2000/svg" width="22.658" height="22.658" viewBox="0 0 22.658 22.658">
  <g id="Group_36" data-name="Group 36" transform="translate(0 0)">
    <path id="Path_40" data-name="Path 40" d="M0,219.265H10.3v10.3H0ZM2.06,227.5h6.18v-6.164H2.06Z" transform="translate(0 -219.265)" fill="#fff"/>
    <rect id="Rectangle_67" data-name="Rectangle 67" width="2.06" height="2.06" transform="translate(4.12 4.12)" fill="#fff"/>
    <rect id="Rectangle_68" data-name="Rectangle 68" width="2.06" height="2.06" transform="translate(16.478)" fill="#fff"/>
    <rect id="Rectangle_69" data-name="Rectangle 69" width="2.06" height="2.06" transform="translate(20.598)" fill="#fff"/>
    <path id="Path_41" data-name="Path 41" d="M227.5,227.5h-2.06v2.06h-6.18v-10.3h2.06v6.18h2.06v-2.06h6.18v6.18H227.5Z" transform="translate(-206.906 -219.265)" fill="#fff"/>
    <path id="Path_42" data-name="Path 42" d="M0,0H10.3V10.3H0ZM2.06,8.24h6.18V2.06H2.06Z" transform="translate(0 12.359)" fill="#fff"/>
    <rect id="Rectangle_70" data-name="Rectangle 70" width="2.06" height="2.06" transform="translate(4.12 16.479)" fill="#fff"/>
    <path id="Path_43" data-name="Path 43" d="M219.265,10.3V0h10.3V10.3ZM227.5,2.06h-6.179V8.24H227.5Z" transform="translate(-206.906 12.359)" fill="#fff"/>
    <rect id="Rectangle_71" data-name="Rectangle 71" width="2.06" height="2.06" transform="translate(16.478 16.479)" fill="#fff"/>
  </g>
</svg>
