<?xml version="1.0" encoding="utf-8"?>
<!-- Svg Vector Icons : http://www.onlinewebfonts.com/icon -->
<!DOCTYPE svg PUBLIC "-//W3C//DTD SVG 1.1//EN" "http://www.w3.org/Graphics/SVG/1.1/DTD/svg11.dtd">
<svg version="1.1" xmlns="http://www.w3.org/2000/svg" xmlns:xlink="http://www.w3.org/1999/xlink" x="0px" y="0px" viewBox="0 0 1000 1000" enable-background="new 0 0 1000 1000" xml:space="preserve">
<metadata> Svg Vector Icons : http://www.onlinewebfonts.com/icon </metadata>
<g><path d="M64,416.5h296.7c29.8,0,53.9-24.1,53.9-53.9V65.9c0-29.8-24.2-54-53.9-54H64c-29.8,0-53.9,24.2-53.9,54v296.7C10.1,392.3,34.2,416.5,64,416.5z M64.5,66.3h295.7V362H64.5V66.3z"/><path d="M936.1,11.9H639.3c-29.8,0-53.9,24.2-53.9,54v296.7c0,29.8,24.2,53.9,53.9,53.9h296.7c29.8,0,53.9-24.1,53.9-53.9V65.9C990,36.1,965.8,11.9,936.1,11.9z M935.6,362H639.8V66.3h295.7V362z"/><path d="M947,665.2H710.1c-23.8,0-43,19.3-43,43V945c0,23.8,19.3,43.1,43,43.1H947c23.8,0,43-19.3,43-43.1V708.2C990,684.5,970.7,665.2,947,665.2z M935.6,933.7h-214v-214h214V933.7z"/><path d="M293.7,665.2H56.8c-23.8,0-43.1,19.3-43.1,43V945c0,23.8,19.3,43.1,43.1,43.1h236.8c23.8,0,43.1-19.3,43.1-43.1V708.2C336.7,684.5,317.4,665.2,293.7,665.2z M282.3,933.7h-214v-214h214V933.7z"/><path d="M37.2,569.9h925.5c15,0,27.2-12.2,27.2-27.2c0-15-12.2-27.2-27.2-27.2H37.2c-15,0-27.2,12.2-27.2,27.2C10,557.7,22.2,569.9,37.2,569.9z"/><path d="M500,406.6c15,0,27.2-12.2,27.2-27.2V39.1c0-15-12.2-27.2-27.2-27.2s-27.2,12.2-27.2,27.2v340.3C472.8,394.4,485,406.6,500,406.6z"/><path d="M585.4,672c-15,0-27.2,12.2-27.2,27.2v258.6c0,15,12.2,27.2,27.2,27.2s27.2-12.2,27.2-27.2V699.2C612.6,684.2,600.4,672,585.4,672z"/><path d="M442.1,760.5c-15,0-27.2,12.2-27.2,27.2v170.1c0,15,12.2,27.2,27.2,27.2s27.2-12.2,27.2-27.2V787.7C469.3,772.6,457.2,760.5,442.1,760.5z"/></g>
</svg>