<?xml version="1.0" encoding="utf-8"?>
<!-- Generator: Adobe Illustrator 22.0.0, SVG Export Plug-In . SVG Version: 6.00 Build 0)  -->
<svg version="1.1" id="Layer_1" xmlns="http://www.w3.org/2000/svg" xmlns:xlink="http://www.w3.org/1999/xlink" x="0px" y="0px"
	 viewBox="0 0 512 512" style="enable-background:new 0 0 512 512;" xml:space="preserve">
<style type="text/css">
	.st0{fill:#FFFFFF;}
	.st1{clip-path:url(#SVGID_2_);fill:#6CACAD;stroke:#999999;stroke-miterlimit:10;}
	.st2{fill:#6CACAD;stroke:#999999;stroke-miterlimit:10;}
</style>
<g>
	<path class="st0" d="M256,497L256,497c64.4,0,124.9-25.1,170.4-70.6C471.9,380.9,497,320.4,497,256c0-64.4-25.1-124.9-70.6-170.4
		C380.9,40.1,320.4,15,256,15h0c-64.4,0-124.9,25.1-170.4,70.6C40,131.1,15,191.6,15,256c0,64.3,25.1,124.9,70.6,170.4
		C131.1,471.9,191.6,497,256,497L256,497z M96.2,96.2c42.7-42.7,99.4-66.2,159.8-66.2c60.3,0,117.1,23.5,159.7,66.2
		c42.7,42.7,66.2,99.4,66.2,159.8c0,60.3-23.5,117.1-66.2,159.8C373.1,458.4,316.4,482,256,482h0c-60.3,0-117.1-23.5-159.8-66.2
		C53.5,373.1,30.1,316.4,30.1,256C30.1,195.7,53.5,138.9,96.2,96.2L96.2,96.2z M96.2,96.2"/>
</g>
<g>
	<path class="st0" d="M433.6,151.8c-18.3-31.3-43.1-56.1-74.4-74.4C327.8,59.1,293.6,50,256.5,50c-37.1,0-71.3,9.1-102.6,27.4
		c-31.3,18.3-56.1,43.1-74.4,74.4C61.1,183.2,52,217.4,52,254.5c0,37.1,9.1,71.3,27.4,102.6c18.3,31.3,43.1,56.1,74.4,74.4
		c31.3,18.3,65.6,27.4,102.7,27.4c37.1,0,71.3-9.1,102.6-27.4c31.3-18.3,56.1-43.1,74.4-74.4c18.3-31.3,27.4-65.6,27.4-102.6
		C461,217.4,451.9,183.2,433.6,151.8L433.6,151.8z M433.6,151.8"/>
</g>
<g>
	<g>
		<defs>
			<rect id="SVGID_1_" x="108" y="86.7" width="299" height="339.2"/>
		</defs>
		<clipPath id="SVGID_2_">
			<use xlink:href="#SVGID_1_"  style="overflow:visible;"/>
		</clipPath>
		<path class="st1" d="M394.6,264.5c-6.7,0-12.1,5.4-12.1,12.1c0,69-56.1,125.1-125.1,125.1c-69,0-125.1-56.1-125.1-125.1
			c0-64.9,49.7-118.4,113-124.5v27.9c0,4.3,2.3,8.3,6.1,10.5c1.9,1.1,4,1.6,6.1,1.6c2.1,0,4.2-0.5,6.1-1.6l70.3-40.6
			c3.7-2.2,6.1-6.2,6.1-10.5c0-4.3-2.3-8.3-6.1-10.5l-70.3-40.6c-3.7-2.2-8.4-2.2-12.1,0c-3.7,2.2-6.1,6.2-6.1,10.5v29
			C168.5,133.9,108,198.3,108,276.6c0,82.4,67,149.3,149.3,149.3c82.4,0,149.4-67,149.4-149.3C406.7,269.9,401.3,264.5,394.6,264.5
			L394.6,264.5z M394.6,264.5"/>
	</g>
</g>
<g>
	<g>
		<path class="st2" d="M320,256.1c0-5.3-1.1-10.5-3.1-15.4c-2-4.7-4.8-8.9-8.5-12.6c-3.6-3.6-7.9-6.5-12.6-8.5
			c-4.9-2.1-10.1-3.1-15.4-3.1c-5.3,0-10.5,1.1-15.4,3.1c-4.7,2-8.9,4.8-12.6,8.5c-3.6,3.6-6.5,7.9-8.5,12.6
			c-2.1,4.9-3.1,10.1-3.1,15.4c0,6.7,1.7,13.2,4.9,19l-47.4,47.3c-1.1,1.1-1.4,2.8-0.8,4.3c0.1,0.3,0.4,0.6,0.6,0.9l10.6,10.6
			c0.3,0.3,0.6,0.5,0.9,0.6c1.6,0.7,3.2,0.3,4.3-0.8l6.6-6.6l9.4,9.4c0.3,0.3,0.6,0.5,0.9,0.6c1.6,0.7,3.2,0.3,4.3-0.8l10.5-10.5
			c0.3-0.3,0.5-0.6,0.6-0.9c0.7-1.6,0.3-3.2-0.8-4.3l-9.3-9.3l25.1-25.1c5.8,3.2,12.4,4.9,19,4.9c5.3,0,10.5-1.1,15.4-3.1
			c4.7-2,8.9-4.8,12.6-8.5c3.6-3.6,6.5-7.9,8.5-12.6C318.9,266.6,320,261.4,320,256.1L320,256.1z M294.3,270
			c-3.7,3.7-8.6,5.7-13.9,5.7c-5.2,0-10.2-2-13.9-5.7c-3.7-3.7-5.8-8.6-5.8-13.9c0-5.3,2-10.2,5.7-13.9c3.7-3.7,8.6-5.7,13.9-5.7
			c5.2,0,10.2,2,13.9,5.7c3.7,3.7,5.7,8.6,5.7,13.9C300.1,261.3,298,266.3,294.3,270L294.3,270z M294.3,270"/>
	</g>
</g>
</svg>
