<?xml version="1.0" encoding="utf-8"?>
<!-- Svg Vector Icons : http://www.onlinewebfonts.com/icon -->
<!DOCTYPE svg PUBLIC "-//W3C//DTD SVG 1.1//EN" "http://www.w3.org/Graphics/SVG/1.1/DTD/svg11.dtd">
<svg version="1.1" xmlns="http://www.w3.org/2000/svg" xmlns:xlink="http://www.w3.org/1999/xlink" x="0px" y="0px" viewBox="0 0 1000 1000" enable-background="new 0 0 1000 1000" xml:space="preserve">
<metadata> Svg Vector Icons : http://www.onlinewebfonts.com/icon </metadata>
<g><path d="M50.8,357.1c-22.6,0-40.8-18.3-40.8-40.8V132.5C10,64.9,64.9,10,132.5,10h245c22.6,0,40.8,18.3,40.8,40.8c0,22.6-18.3,40.8-40.8,40.8h-245c-22.5,0-40.8,18.3-40.8,40.8v183.7C91.7,338.8,73.4,357.1,50.8,357.1z"/><path d="M949.2,357.1c-22.6,0-40.8-18.3-40.8-40.8V132.5c0-22.5-18.3-40.8-40.8-40.8h-245c-22.6,0-40.8-18.3-40.8-40.8c0-22.6,18.3-40.8,40.8-40.8h245C935.1,10,990,64.9,990,132.5v183.7C990,338.8,971.7,357.1,949.2,357.1z"/><path d="M377.5,990h-245C64.9,990,10,935.1,10,867.5V683.8c0-22.6,18.3-40.8,40.8-40.8c22.6,0,40.8,18.3,40.8,40.8v183.8c0,22.5,18.3,40.8,40.8,40.8h245c22.6,0,40.8,18.3,40.8,40.8C418.3,971.7,400.1,990,377.5,990z"/><path d="M867.5,990h-245c-22.6,0-40.8-18.3-40.8-40.8s18.3-40.8,40.8-40.8h245c22.5,0,40.8-18.3,40.8-40.8V683.8c0-22.6,18.3-40.8,40.8-40.8c22.5,0,40.8,18.3,40.8,40.8v183.8C990,935.1,935,990,867.5,990z"/><path d="M949.2,540.8H50.8C28.3,540.8,10,522.6,10,500c0-22.6,18.3-40.8,40.8-40.8h898.3c22.5,0,40.8,18.3,40.8,40.8C990,522.6,971.7,540.8,949.2,540.8z"/></g>
</svg>