<svg id="transfer" xmlns="http://www.w3.org/2000/svg" xmlns:xlink="http://www.w3.org/1999/xlink" width="140.99" height="110.779" viewBox="0 0 140.99 110.779">
  <defs>
    <linearGradient id="linear-gradient" x1="0.5" x2="0.5" y2="1" gradientUnits="objectBoundingBox">
      <stop offset="0" stop-color="#fc7832"/>
      <stop offset="1" stop-color="#e84159"/>
    </linearGradient>
  </defs>
  <g id="Group_5" data-name="Group 5">
    <path id="Path_17" data-name="Path 17" d="M139.516,62.9,104.268,27.655a5.036,5.036,0,0,0-8.6,3.56V46.322H60.424a5.036,5.036,0,1,0,0,10.071h40.284a5.035,5.035,0,0,0,5.036-5.036V43.371l23.093,23.093L105.743,89.556V81.57a5.035,5.035,0,0,0-5.036-5.036H45.318V61.428a5.035,5.035,0,0,0-8.6-3.56L1.474,93.116a5.035,5.035,0,0,0,0,7.12l35.248,35.248a5.035,5.035,0,0,0,3.56,1.476,4.971,4.971,0,0,0,1.928-.383,5.035,5.035,0,0,0,3.107-4.653V116.818H80.566a5.036,5.036,0,0,0,0-10.071H40.282a5.035,5.035,0,0,0-5.036,5.036v7.986L12.154,96.676,35.247,73.584V81.57a5.035,5.035,0,0,0,5.036,5.036h55.39v15.106a5.035,5.035,0,0,0,8.6,3.56l35.248-35.248A5.036,5.036,0,0,0,139.516,62.9Z" transform="translate(0 -26.181)" fill="url(#linear-gradient)"/>
  </g>
</svg>
