<?xml version="1.0" encoding="utf-8"?>
<!-- Svg Vector Icons : http://www.onlinewebfonts.com/icon -->
<!DOCTYPE svg PUBLIC "-//W3C//DTD SVG 1.1//EN" "http://www.w3.org/Graphics/SVG/1.1/DTD/svg11.dtd">
<svg version="1.1" xmlns="http://www.w3.org/2000/svg" xmlns:xlink="http://www.w3.org/1999/xlink" x="0px" y="0px" viewBox="0 0 1000 1000" enable-background="new 0 0 1000 1000" xml:space="preserve">
<metadata> Svg Vector Icons : http://www.onlinewebfonts.com/icon </metadata>
<g><path d="M747.9,701.3H49.2c-21.6,0-39.2,17.6-39.2,39.3v19.4c0,21.8,17.6,39.3,39.2,39.3H683v87c0,66.8,40.1,84.5,89.4,39.6l203.2-185c24.1-21.9,17.2-39.7-15.3-39.7H747.9z M252.1,291.1h693.3c21.8,0,39.2-17.6,39.2-39.3v-19.4c0-21.8-17.6-39.3-39.2-39.3H317v-70.6c0-75.9-45.3-96.1-101.3-45.1L24.4,251.4c-24.1,21.9-17.2,39.7,15.3,39.7H252.1L252.1,291.1z"/></g>
</svg>